<?xml version="1.0" encoding="UTF-8" standalone="no"?>
<!-- Created with Inkscape (http://www.inkscape.org/) -->

<svg
   xmlns:dc="http://purl.org/dc/elements/1.1/"
   xmlns:cc="http://creativecommons.org/ns#"
   xmlns:rdf="http://www.w3.org/1999/02/22-rdf-syntax-ns#"
   xmlns:svg="http://www.w3.org/2000/svg"
   xmlns="http://www.w3.org/2000/svg"
   xmlns:sodipodi="http://sodipodi.sourceforge.net/DTD/sodipodi-0.dtd"
   xmlns:inkscape="http://www.inkscape.org/namespaces/inkscape"
   width="99.699257"
   height="105.70333"
   id="svg3381"
   version="1.1"
   inkscape:version="0.48.4 r9939"
   sodipodi:docname="Logo_ungPIR_flagSvart_NO.svg">
  <defs
     id="defs3383" />
  <sodipodi:namedview
     id="base"
     pagecolor="#ffffff"
     bordercolor="#666666"
     borderopacity="1.0"
     inkscape:pageopacity="0.0"
     inkscape:pageshadow="2"
     inkscape:zoom="5.6"
     inkscape:cx="-8.1860922"
     inkscape:cy="59.994517"
     inkscape:document-units="px"
     inkscape:current-layer="layer1"
     showgrid="false"
     inkscape:window-width="1366"
     inkscape:window-height="746"
     inkscape:window-x="-8"
     inkscape:window-y="-8"
     inkscape:window-maximized="1"
     fit-margin-top="0"
     fit-margin-left="0"
     fit-margin-right="0"
     fit-margin-bottom="0" />
  <metadata
     id="metadata3386">
    <rdf:RDF>
      <cc:Work
         rdf:about="">
        <dc:format>image/svg+xml</dc:format>
        <dc:type
           rdf:resource="http://purl.org/dc/dcmitype/StillImage" />
        <dc:title></dc:title>
      </cc:Work>
    </rdf:RDF>
  </metadata>
  <g
     inkscape:label="Layer 1"
     inkscape:groupmode="layer"
     id="layer1"
     transform="translate(-325.15037,-479.51052)">
    <circle
       transform="translate(325.15063,479.51085)"
       style="fill:#ffffff;stroke:#000000;stroke-width:5.0999999"
       sodipodi:ry="44.029999"
       sodipodi:rx="44.029999"
       sodipodi:cy="49.306"
       sodipodi:cx="53.118999"
       id="circle274"
       r="44.029999"
       cy="49.306"
       cx="53.118999"
       d="m 97.148998,49.306 c 0,24.317097 -19.712902,44.029999 -44.029999,44.029999 -24.317096,0 -44.0299983,-19.712902 -44.0299983,-44.029999 0,-24.317097 19.7129023,-44.029999 44.0299983,-44.029999 24.317097,0 44.029999,19.712902 44.029999,44.029999 z" />
    <path
       style="fill:#1b1b1b;fill-opacity:1;stroke:#1b1b1b;stroke-width:5.0999999;stroke-linecap:round;stroke-miterlimit:10;stroke-opacity:1"
       inkscape:connector-curvature="0"
       id="path276"
       d="m 409.65263,495.62285 c 0,0 -3.642,0.05 -6.115,0.05 -16.329,0 -28.325,1.259 -44.713,11.206 -14.944,9.072 -24.319,23.371 -24.319,23.371 0,0 0.029,1.606 0.221,3.335 0.557,5.003 1.782,8.83 2.947,11.769 2.609,6.593 7.036,11.902 7.036,11.902 0,0 0.839,1.637 1.327,6.376 0.773,7.51 -9.16,19.032 -9.16,19.032 0,0 0.983,-5.056 -3.203,-12.479 -2.429,-4.308 -4.417,-10.602 -3.975,-15.24 0.493,-5.167 2.098,-9.165 2.54,-12.037 0.396,-2.576 -0.548,-4.819 -0.548,-4.819 0,0 -4.225,-2.254 -3.98,-6.887 0.221,-4.196 3.865,-5.678 3.865,-5.678 0,0 0.512,-23.483 21.225,-36.595 10.815,-6.848 27.781,-9.402 41.209,-3.813 9.461,3.941 15.643,10.507 15.643,10.507 z"
       stroke-miterlimit="10" />
    <path
       inkscape:connector-curvature="0"
       id="path278"
       d="m 365.21563,503.30285 h 3.243 v 5.237 c 2.877,-0.649 6.573,-1.061 11.253,-1.061 12.517,0 21.988,3.995 24.14,15.269 2.005,10.489 -4.125,13.642 -12.896,16.125 -6.931,1.958 -19.024,2.438 -22.268,6.487 -3.243,4.048 -3.383,9.182 -2.194,13.771 -1.674,-4.207 -2.555,-6.951 -2.555,-10.303 0,-1.817 0.329,-3.825 1.275,-5.697 v -31.993 c -1.206,-0.078 -2.349,-0.057 -3.367,0.029 0.857,-0.597 1.963,-1.173 3.367,-1.689 v -6.175 h 0.002 z m 3.244,8.278 v 27.761 c 0.429,-0.316 0.897,-0.614 1.409,-0.889 7.072,-3.852 9.725,-7.328 9.615,-13.718 -0.148,-8.484 -5.607,-11.984 -11.024,-13.154"
       style="fill:#000000;fill-opacity:1" />
    <g
       id="g3092"
       transform="matrix(0.41382212,0,0,0.41382212,333.89165,489.53162)">
      <path
         d="m 121.482,86.126 h 1.188 v 1.529 h -1.188 v -1.529 z"
         id="path3094"
         inkscape:connector-curvature="0"
         style="fill:#ffffff" />
      <path
         d="m 126.018,75.056 h 0.882 l 8.694,10.961 V 75.056 h 0.9 v 12.6 h -0.702 l -8.874,-11.195 v 11.195 h -0.9 v -12.6 z"
         id="path3096"
         inkscape:connector-curvature="0"
         style="fill:#ffffff" />
      <path
         d="m 145.997,87.873 c -0.96,0 -1.827,-0.178 -2.601,-0.531 -0.774,-0.354 -1.438,-0.828 -1.989,-1.422 -0.551,-0.594 -0.978,-1.281 -1.278,-2.061 -0.3,-0.781 -0.449,-1.603 -0.449,-2.467 v -0.036 c 0,-0.864 0.152,-1.689 0.459,-2.475 0.306,-0.786 0.734,-1.479 1.287,-2.079 0.551,-0.6 1.217,-1.077 1.998,-1.431 0.779,-0.354 1.649,-0.531 2.609,-0.531 0.947,0 1.813,0.177 2.592,0.531 0.78,0.354 1.446,0.828 1.998,1.422 0.552,0.594 0.979,1.281 1.278,2.061 0.3,0.78 0.45,1.602 0.45,2.466 0.012,0.012 0.012,0.024 0,0.036 0,0.864 -0.153,1.688 -0.459,2.475 -0.307,0.785 -0.735,1.479 -1.287,2.078 -0.553,0.6 -1.221,1.078 -2.008,1.432 -0.784,0.354 -1.651,0.532 -2.6,0.532 z m 0.036,-0.846 c 0.779,0 1.497,-0.148 2.15,-0.441 0.654,-0.295 1.219,-0.695 1.693,-1.207 0.473,-0.51 0.842,-1.105 1.106,-1.791 0.264,-0.683 0.396,-1.415 0.396,-2.195 v -0.036 c 0,-0.78 -0.135,-1.515 -0.404,-2.205 -0.271,-0.69 -0.643,-1.29 -1.116,-1.8 -0.474,-0.51 -1.042,-0.915 -1.701,-1.215 -0.66,-0.3 -1.38,-0.45 -2.16,-0.45 -0.78,0 -1.497,0.147 -2.151,0.441 -0.654,0.294 -1.218,0.696 -1.691,1.206 -0.475,0.51 -0.844,1.107 -1.107,1.791 -0.264,0.684 -0.396,1.417 -0.396,2.196 v 0.036 c 0,0.78 0.135,1.515 0.405,2.204 0.27,0.691 0.642,1.291 1.115,1.801 0.475,0.51 1.041,0.916 1.701,1.215 0.66,0.299 1.38,0.45 2.16,0.45 z"
         id="path3098"
         inkscape:connector-curvature="0"
         style="fill:#ffffff" />
    </g>
  </g>
</svg>
